<?xml version="1.0" encoding="UTF-8"?><svg xmlns="http://www.w3.org/2000/svg" viewBox="0 0 205.69116 48.88295"><g id="a" isolation="isolate"><g id="b"><path d="M18.85687,2.86884C16.95135,1.14056,14.10388.27631,10.3147.27631c-1.0611,0-2.09528.02722-3.10199.0813-1.00696.05432-2.05182.08124-3.13422.08124-1.32117,0-2.68066-.02155-4.07849-.065l.03253.69891,2.0155.63391c.24915.08685.37915.271.39008.55267.01068.35754.0188.75854.02441,1.20276.00531.44446.00812.94275.00812,1.49536v13.18195c0,.65015-.00281,1.24347-.00812,1.77985-.00562.53638-.01373,1.02142-.02441,1.45471-.01093.24939-.15717.41724-.43884.50385l-1.99927.60144.06506.69891c1.37598-.03253,2.71918-.04877,4.02966-.04877.99609,0,1.90527.01624,2.72815.04877.82288.03247,1.75922.04877,2.80963.04877,3.82172,0,6.79108-1.10785,8.90765-3.32397,2.11658-2.21588,3.17511-5.32849,3.17511-9.33789,0-3.4024-.95288-5.96771-2.8584-7.69623ZM15.91266,19.36658c-1.49536,1.68512-3.6734,2.52753-6.53412,2.52753-.61768,0-1.23273-.01349-1.84479-.04065-.61237-.02692-1.2381-.0838-1.87738-.17065V1.8042c.74768-.05408,1.41663-.09192,2.00739-.11377.59045-.02161,1.12964-.03253,1.61725-.03253,3.07733,0,5.32574.81549,6.74542,2.44623,1.41943,1.63098,2.12927,4.13666,2.12927,7.51746,0,3.47833-.74768,6.06018-2.24304,7.745ZM41.2395,22.02411c-.41193-.13-.72888-.32764-.95081-.59326-.22223-.26538-.46887-.77209-.73956-1.51971L32.3324.03253l-1.67419.24377-8.30579,19.82983c-.23846.57446-.45508.99707-.65015,1.26782-.19501.271-.49854.47137-.91022.60138l-1.64166.50391.0813.69891c1.20276-.03253,2.29181-.04877,3.26703-.04877.97528,0,2.23212.01624,3.77094.04877l-.03253-.73145-1.5116-.43884c-.20593-.065-.36035-.14349-.46326-.23572-.10309-.09192-.15442-.2301-.15442-.41443,0-.20575.06506-.48767.19507-.84521.13007-.3576.30884-.83966.53638-1.44659l1.70667-4.33984h7.83441l1.52789,4.35608c.20569.58514.36566,1.05396.47949,1.40594.11377.35229.17065.63672.17065.85333,0,.19507-.0462.33881-.13818.43073-.09216.09222-.24658.17627-.46326.25195l-1.54413.45514.06506.69891c1.6795-.03253,3.13702-.04877,4.37231-.04877,1.21344,0,2.53003.01624,3.94971.04877l-.03253-.69891-1.52789-.45514ZM27.14734,13.24695l3.5271-8.95587,3.16956,8.95587h-6.69666ZM50.61316,3.42145c.00537-.44952.01349-.86395.02441-1.24341.02161-.27069.16254-.43884.42261-.50385l2.0155-.60144-.06506-.69891c-1.38715.04346-2.73065.065-4.03094.065-1.28967,0-2.63318-.02155-4.03101-.065l.03253.69891,2.0155.63391c.24915.08685.37915.271.39008.55267.01068.35754.0188.75854.02435,1.20276.00537.44446.00812.94275.00812,1.49536v13.18195c0,.65015-.00275,1.24347-.00812,1.77985-.00555.53638-.01367,1.02142-.02435,1.45471-.02185.26007-.16815.42816-.43884.50385l-1.99927.60144.065.69891c1.37604-.03253,2.71979-.04877,4.03101-.04877,1.28943,0,2.63312.01624,4.03101.04877l-.03253-.69891-1.83667-.56891c-.36853-.09753-.55823-.28168-.56891-.55261-.01093-.43329-.01904-.91559-.02441-1.44659-.00555-.53082-.00812-1.12158-.00812-1.77173V4.89246c0-.53082.00256-1.02118.00812-1.47101ZM68.97626,12.77563c-.56891-.48761-1.20563-.91278-1.90985-1.27594-.70453-.36292-1.43036-.70703-2.17804-1.03217-.68268-.30322-1.34375-.61206-1.98297-.92645-.63947-.31415-1.21094-.67175-1.71478-1.07275-.50391-.40076-.90491-.86682-1.20282-1.39783-.29816-.53082-.44696-1.14844-.44696-1.85297,0-1.23529.42511-2.19965,1.27594-2.89319.85052-.69336,1.99109-1.04028,3.42145-1.04028.95337,0,1.99921.18976,3.13702.56891l1.05646,4.04724.65021-.11377.95898-5.07123-.11383-.11383c-1.87476-.4007-3.66805-.60138-5.38-.60138-2.42743,0-4.46173.53638-6.10339,1.60919-1.6416,1.07275-2.46246,2.5899-2.46246,4.55109,0,.97522.17322,1.82855.52014,2.56.34668.73138.80988,1.34906,1.38971,1.85291.57953.50391,1.22717.94556,1.94232,1.32471.71521.37946,1.45197.73145,2.21057,1.05652.67175.30353,1.3219.6095,1.95044.91833.62836.30884,1.18909.65295,1.68231,1.03217.49292.37939.8858.83173,1.17841,1.35718.29254.5257.43884,1.13525.43884,1.82855,0,1.3222-.45258,2.34058-1.35718,3.05579-.90491.71515-2.16461,1.07275-3.77905,1.07275-1.20282,0-2.37866-.22754-3.5271-.68268l-1.13782-4.61615-.73138.11377-.79645,5.52637.09753.13007c2.09113.58514,3.99847.87769,5.72137.87769,2.67633,0,4.85712-.56891,6.54224-1.70667,1.68481-1.13776,2.52747-2.78473,2.52747-4.94122,0-.91022-.17065-1.70667-.51202-2.38928-.34131-.68268-.79645-1.26782-1.3653-1.75543ZM89.27252.43884c-1.22461,0-2.42181-.02155-3.5921-.065l.03247.74768,1.46289.39014c.47668.13.71521.36316.71521.69891,0,.23846-.09222.54193-.27637.91022-.18439.36847-.41193.81268-.68262,1.33282l-3.75879,7.10297-4.30322-7.46057c-.24939-.43329-.45789-.81525-.62579-1.14587-.16809-.33044-.25189-.60956-.25189-.8371,0-.15161.04877-.27887.1463-.38196.09747-.10291.26001-.18134.48761-.23572l1.52783-.42261-.065-.69891c-1.56036.04346-3.07196.065-4.53485.065-1.67975,0-3.01257-.02155-3.99847-.065l.03253.69891,1.47913.45514c.42261.11938.76111.32507,1.01587.61761.25446.2926.58234.76953.98334,1.43036l5.72137,9.91492v4.59985c0,.65015-.00281,1.24347-.00812,1.77985-.00562.53638-.01373,1.02142-.02435,1.45471-.02185.26007-.16815.42816-.4389.50385l-2.17798.65021.065.69891c1.49536-.03253,2.90131-.04877,4.21814-.04877,1.28381,0,2.6842.01624,4.20142.04877l-.03253-.69891-2.0155-.61768c-.36847-.09753-.55823-.28168-.56891-.55261-.01086-.43329-.01904-.91559-.02435-1.44659-.00555-.53082-.00812-1.12158-.00812-1.77173v-4.94116l5.62384-10.02869c.21667-.37921.43073-.69891.64203-.95898s.51202-.44952.9021-.56891l1.64166-.52014-.065-.69891c-1.11621.04346-2.26489.065-3.44586.065ZM114.56366,21.76404c-3.06665,0-5.46692-.94275-7.2005-2.82819-1.73383-1.88544-2.60059-4.41016-2.60059-7.57434,0-2.95819.7583-5.36377,2.27551-7.21674,1.51697-1.85297,3.60278-2.77942,6.25775-2.77942,1.09436,0,2.31342.16809,3.65717.50385l1.18652,4.27478.65015-.09747,1.00775-5.25006-.11377-.13c-1.91797-.44421-3.79272-.66644-5.62384-.66644-3.81433,0-6.91071,1.08368-9.28912,3.25079-2.37866,2.16736-3.56775,5.10931-3.56775,8.82593,0,3.48926,1.08087,6.30115,3.24268,8.43579,2.16174,2.13483,4.99249,3.20203,8.49268,3.20203,2.69812,0,5.11438-.73676,7.24927-2.21057l-.17883-.73138c-1.90729.66107-3.72211.99146-5.44507.99146ZM142.74475,2.25934c.01068-.28168.14075-.46582.39014-.55267l2.04797-.63391-.065-.69891c-1.35468.04346-2.67657.065-3.966.065-1.28961,0-2.59528-.02155-3.91718-.065l.03253.69891,1.80414.56891c.27075.065.41168.23315.42261.50385.02161.78021.03253,1.69604.03253,2.74695v5.51007h-11.83289v-5.51007c0-1.0509.01068-1.96674.03253-2.74695.01068-.27069.15161-.43884.42261-.50385l1.85297-.56891-.0813-.69891c-1.26782.04346-2.55188.065-3.85217.065-1.28967,0-2.63318-.02155-4.03101-.065l.03253.69891,2.0155.63391c.24908.08685.37915.271.39008.55267.02161.71515.03253,1.61469.03253,2.69812v13.18195c0,1.27875-.01093,2.35681-.03253,3.23456-.01093.24939-.15723.41724-.43884.50385l-1.99927.60144.065.69891c1.39789-.03253,2.74133-.04877,4.03101-.04877,1.28937,0,2.5788.01624,3.86847.04877l-.04883-.69891-1.80414-.56891c-.271-.07568-.41193-.26007-.42261-.55261-.02185-.86682-.03253-1.93958-.03253-3.21832v-6.25775h11.83289v6.25775c0,1.27875-.01093,2.3515-.03253,3.21832-.01093.29254-.15186.47693-.42261.55261l-1.83667.56891.065.69891c1.23529-.03253,2.49756-.04877,3.78717-.04877,1.30035,0,2.66565.01624,4.09601.04877l-.03253-.69891-1.96667-.60144c-.28192-.08661-.42822-.25446-.4389-.50385-.02185-.87775-.03247-1.95581-.03247-3.23456V4.95746c0-1.08344.01062-1.98297.03247-2.69812ZM168.77051,22.02411c-.41187-.13-.72876-.32764-.95068-.59326-.22229-.26538-.46899-.77209-.73975-1.51971L159.8634.03253l-1.67413.24377-8.30579,19.82983c-.23846.57446-.45508.99707-.65015,1.26782-.19507.271-.49854.47137-.91022.60138l-1.64166.50391.0813.69891c1.20276-.03253,2.29181-.04877,3.26703-.04877s2.23212.01624,3.77094.04877l-.03253-.73145-1.5116-.43884c-.20599-.065-.36041-.14349-.46326-.23572-.10309-.09192-.15442-.2301-.15442-.41443,0-.20575.065-.48767.19507-.84521.13-.3576.30884-.83966.53638-1.44659l1.70667-4.33984h7.83441l1.52783,4.35608c.20575.58514.36572,1.05396.47949,1.40594.11383.35229.17072.63672.17072.85333,0,.19507-.04626.33881-.13818.43073-.09222.09222-.24658.17627-.46326.25195l-1.54413.45514.065.69891c1.6795-.03253,3.13702-.04877,4.37238-.04877,1.21344,0,2.52997.01624,3.94977.04877l-.03259-.69891-1.52795-.45514ZM154.67841,13.24695l3.5271-8.95587,3.16956,8.95587h-6.69666ZM178.14429,3.42145c.00537-.44952.01343-.86395.02441-1.24341.02148-.27069.16248-.43884.42261-.50385l2.01538-.60144-.06494-.69891c-1.38721.04346-2.73071.065-4.03101.065-1.28967,0-2.63318-.02155-4.03101-.065l.03247.69891,2.0155.63391c.24915.08685.37927.271.39014.55267.01062.35754.0188.75854.02429,1.20276.00537.44446.00818.94275.00818,1.49536v13.18195c0,.65015-.00281,1.24347-.00818,1.77985-.00549.53638-.01367,1.02142-.02429,1.45471-.02185.26007-.16809.42816-.43884.50385l-1.99927.60144.06494.69891c1.3761-.03253,2.71973-.04877,4.03101-.04877,1.28943,0,2.63318.01624,4.03101.04877l-.03247-.69891-1.83667-.56891c-.36853-.09753-.55835-.28168-.56885-.55261-.01099-.43329-.01904-.91559-.02441-1.44659-.00562-.53082-.00818-1.12158-.00818-1.77173V4.89246c0-.53082.00256-1.02118.00818-1.47101ZM205.6261.37384c-1.35461.04346-2.46521.065-3.33215.065-.85596,0-1.97754-.02155-3.3645-.065l.03247.74768,1.91797.55267c.27075.08685.41174.2547.42261.50385.02173.75861.03247,1.66351.03247,2.71442v12.5318L187.68164.37384c-.49841.04346-.99146.065-1.479.065-.81274,0-1.91797-.02155-3.31592-.065l.03259.69891,2.0155.63391c.24915.08685.37915.271.39014.55267.02148.71515.03247,1.61469.03247,2.69812v13.18195c0,1.27875-.01099,2.35681-.03247,3.23456-.01099.24939-.15723.41724-.43896.50385l-1.99927.60144.06519.69891c1.39771-.03253,2.51929-.04877,3.3645-.04877.86682,0,1.97729.01624,3.33203.04877l-.03247-.73145-1.93433-.56891c-.26001-.065-.39551-.24915-.40625-.55261-.02185-.84521-.03247-1.90704-.03247-3.18579V5.00623l14.6123,18.25317,1.36523-.13V4.95746c0-1.08344.01074-1.98297.03247-2.69812.01074-.28168.14075-.46582.39014-.55267l2.0481-.63391-.06506-.69891Z" fill="#fdfbe5" fill-rule="evenodd"/></g></g><g id="d" isolation="isolate"><g id="e"><path d="M47.46893,29.26416c-.85742,0-1.74878-.01428-2.67432-.04303l.02155.46277,1.33447.41968c.16492.05756.25104.17944.25824.36591.00708.23676.01245.50232.01617.79639.00354.29425.00537.62421.00537.99011v10.02997c0,.76782-.03058,1.45654-.09149,2.06628-.06104.60974-.20093,1.15857-.41968,1.64655-.21893.48779-.54181.92181-.96857,1.30219-.42694.38019-1.01349.72809-1.75958,1.04388l.16144.53809c.73889-.17218,1.3775-.36237,1.91559-.57037.53809-.20819.99786-.45032,1.37952-.72644.38159-.27625.69672-.59186.94556-.94702.2489-.3551.44177-.75867.5788-1.21069.13684-.45197.23236-.96686.2865-1.54431s.08124-1.21777.08124-1.92102v-9.75018c0-.35144.00165-.67615.00537-.97394.00354-.29761.00891-.57202.01617-.82324.01428-.17926.11115-.29059.29053-.33362l1.33447-.39819-.05377-.46277c-.91846.02875-1.80634.04303-2.66357.04303ZM60.77594,43.31909h-5.16571c-.01447-.77484-.02148-1.56049-.02148-2.35681v-3.9173h.96857c.7533,0,1.59625.0072,2.52899.02148.16498.00726.27612.10413.33362.29059l.38739,1.47437.58118-.04303c-.02155-.99719-.03229-1.72894-.03229-2.19543,0-.48059.01074-1.22314.03229-2.22772l-.58118.02155-.37665,1.45288c-.0575.17938-.17938.27271-.36584.27979-.91846.01447-1.75067.02155-2.49677.02155h-.97931v-5.91901h4.97192l.66724,2.48596.43048-.07532.62421-3.32538-.06458-.08612c-1.7865.02875-3.48334.04303-5.09039.04303h-2.61511c-.85382,0-1.74341-.01428-2.66888-.04303l.02148.46277,1.33447.41968c.16498.05756.25104.17944.2583.36591.00708.23676.01245.50232.01611.79639.00354.29425.00543.62421.00543.99011v8.72778c0,.43048-.00189.8233-.00543,1.17841-.00366.35516-.00903.67633-.01611.9632-.01447.17224-.11133.28351-.29059.33362l-1.32367.39819.04303.46277c.91107-.02155,1.80078-.03229,2.66895-.03229h2.56128c1.57123,0,3.28589.01074,5.14417.03229l.07532-.07532.23676-3.74512-.48425.08606-1.31293,2.73352ZM84.44989,29.26416c-.79639,0-1.58197-.01428-2.35681-.04303l.02155.49506,1.0116.26904c.14343.03595.2475.08258.31207.13989.06458.0575.09686.1507.09686.27979,0,.12915-.03601.3158-.1076.55963-.07184.24396-.17218.57037-.30133.97931l-3.03485,9.34125-3.88501-12.1178-.96857.07532-3.99261,11.93488-2.91644-9.24438c-.11487-.38019-.20636-.68689-.27441-.92017-.0683-.23303-.10229-.42139-.10229-.56494,0-.13623.03229-.2403.09686-.31213.06458-.07159.17224-.12543.32288-.16138l1.0116-.29059-.04303-.46277c-1.09772.02875-2.08075.04303-2.94873.04303-.96149,0-1.7937-.01428-2.49677-.04303l.02155.46277.97931.30133c.26538.07904.47168.20984.61884.39282.14697.18292.27795.44305.39276.78021l4.30475,13.21552,1.08691-.08612,3.94965-11.37524,3.77734,11.46136,1.08698-.08612,4.67059-13.2478c.12195-.33716.24567-.57391.37128-.71027.12549-.13623.29596-.23676.51123-.30133l1.08691-.34436-.04303-.46277c-.73181.02875-1.48517.04303-2.26001.04303ZM97.03418,43.31909h-5.16565c-.01447-.77484-.02155-1.56049-.02155-2.35681v-3.9173h.96857c.7533,0,1.59625.0072,2.52899.02148.16498.00726.27612.10413.33362.29059l.38745,1.47437.58112-.04303c-.02155-.99719-.03229-1.72894-.03229-2.19543,0-.48059.01074-1.22314.03229-2.22772l-.58112.02155-.37665,1.45288c-.05756.17938-.17944.27271-.36591.27979-.91846.01447-1.75067.02155-2.49677.02155h-.97931v-5.91901h4.97192l.66724,2.48596.43048-.07532.62421-3.32538-.06458-.08612c-1.78644.02875-3.48328.04303-5.09033.04303h-2.61511c-.85388,0-1.74341-.01428-2.66895-.04303l.02155.46277,1.33441.41968c.16498.05756.2511.17944.2583.36591.00708.23676.01245.50232.01617.79639.00348.29425.00537.62421.00537.99011v8.72778c0,.43048-.00189.8233-.00537,1.17841-.00372.35516-.00909.67633-.01617.9632-.01447.17224-.11133.28351-.29059.33362l-1.32367.39819.04303.46277c.91107-.02155,1.80078-.03229,2.66895-.03229h2.56134c1.57117,0,3.28583.01074,5.1441.03229l.07532-.07532.23676-3.74512-.48425.08606-1.31293,2.73352ZM109.35431,43.31909h-5.24103c-.01447-.77484-.02155-1.56049-.02155-2.35681v-8.74939c0,.01447.00171-.21875.00543-.69952.00354-.48053.00891-.84644.01611-1.09766.01428-.17926.1076-.29059.27979-.33362l1.33447-.39819-.04303-.46277c-.91846.02875-1.80798.04303-2.66895.04303-.85388,0-1.74341-.01428-2.66895-.04303l.02155.46277,1.33447.41968c.16498.05756.25104.17944.2583.36591.00702.23676.01245.50232.01611.79639.00354.29425.00537.62421.00537.99011v8.72778c0,.43048-.00183.8233-.00537,1.17841-.00366.35516-.00909.67633-.01611.9632-.01447.17224-.11133.28351-.29059.33362l-1.32373.39819.04309.46277c.91101-.02155,1.80072-.03229,2.66888-.03229h2.70123c1.57831,0,3.29663.01074,5.15491.03229l.06458-.07532.23676-3.85278-.48425.07538-1.3775,2.85187ZM121.6012,43.31909h-5.24097c-.01447-.77484-.02155-1.56049-.02155-2.35681v-8.74939c0,.01447.00171-.21875.00537-.69952.00354-.48053.00891-.84644.01617-1.09766.01428-.17926.1076-.29059.27979-.33362l1.33447-.39819-.04303-.46277c-.91846.02875-1.80798.04303-2.66895.04303-.85388,0-1.74341-.01428-2.66895-.04303l.02155.46277,1.33447.41968c.16498.05756.25104.17944.2583.36591.00702.23676.01239.50232.01611.79639.00354.29425.00537.62421.00537.99011v8.72778c0,.43048-.00183.8233-.00537,1.17841-.00372.35516-.00909.67633-.01611.9632-.01447.17224-.11133.28351-.29059.33362l-1.32373.39819.04309.46277c.91101-.02155,1.80072-.03229,2.66888-.03229h2.70123c1.57831,0,3.29663.01074,5.15491.03229l.06458-.07532.23676-3.85278-.48425.07538-1.37756,2.85187ZM133.77283,43.31909h-5.16565c-.01447-.77484-.02155-1.56049-.02155-2.35681v-3.9173h.96857c.7533,0,1.59625.0072,2.52905.02148.16492.00726.27606.10413.33362.29059l.38739,1.47437.58112-.04303c-.02148-.99719-.03229-1.72894-.03229-2.19543,0-.48059.0108-1.22314.03229-2.22772l-.58112.02155-.37665,1.45288c-.0575.17938-.17944.27271-.36591.27979-.91846.01447-1.75067.02155-2.49677.02155h-.97931v-5.91901h4.97198l.66724,2.48596.43042-.07532.62421-3.32538-.06458-.08612c-1.78644.02875-3.48328.04303-5.09033.04303h-2.61511c-.85388,0-1.74341-.01428-2.66895-.04303l.02155.46277,1.33447.41968c.16492.05756.25104.17944.25824.36591.00708.23676.01245.50232.01617.79639.00354.29425.00537.62421.00537.99011v8.72778c0,.43048-.00183.8233-.00537,1.17841-.00372.35516-.00909.67633-.01617.9632-.01447.17224-.11127.28351-.29053.33362l-1.32373.39819.04309.46277c.91101-.02155,1.80072-.03229,2.66888-.03229h2.56134c1.57123,0,3.28589.01074,5.1441.03229l.07532-.07532.23682-3.74512-.48431.08606-1.31293,2.73352ZM149.73584,43.76031c-.14716-.04303-.28705-.09314-.41974-.15063-.13281-.05737-.26013-.13086-.38202-.22064-.12207-.0896-.24402-.19537-.36591-.31744-.23676-.23676-.49286-.55963-.76831-.96857-.27545-.409-.57843-.88062-.90936-1.41522-.33093-.53436-.68927-1.12274-1.07465-1.76489-.38544-.64203-.80731-1.30756-1.26538-1.99634,1.16364-.35864,2.02893-.86987,2.59631-1.53357.56732-.66351.85101-1.52985.85101-2.59894,0-1.18384-.41333-2.08411-1.23981-2.70123-.82666-.61694-2.06647-.92554-3.71936-.92554-.1524,0-.35901.00372-.62.0108-.26099.0072-.58722.01794-.97864.03229-.38446.0144-.71063.02686-.97888.03766-.26837.01074-.48944.01611-.66333.01611-.88281,0-1.78699-.01428-2.71246-.04303l.02148.46277,1.33447.41968c.16498.05756.25104.17944.2583.36591.00708.23676.01245.50232.01611.79639.00354.29425.00537.62421.00537.99011v8.72778c0,.43048-.00183.8233-.00537,1.17841-.00366.35516-.00903.67633-.01611.9632-.01447.17224-.11133.28351-.29059.33362l-1.32367.39819.04303.46277c.91107-.02155,1.80078-.03229,2.66895-.03229.8537,0,1.7074.01074,2.56128.03229l-.03229-.46277-1.19452-.3551c-.17944-.05737-.27277-.19727-.27985-.41974-.0072-.27979-.01257-.59192-.01611-.93628-.00372-.34436-.00537-.73181-.00537-1.16229v-3.73431l.75262.02148c.18903.00726.34357.02155.46362.04309.12006.02148.22546.06104.31647.11835.09076.0575.1745.13641.25085.23676.07635.10059.16919.23676.27832.409.37073.57404.72339,1.16058,1.05798,1.75952.33466.59912.65649,1.16412.96558,1.69501.30902.53101.60736,1.00623.89453,1.4259.28723.41974.58002.74091.8783.9632.13806.1076.27795.19556.41986.26367.14191.0683.30017.12378.47473.16681.1745.04303.37329.07166.59644.08606.22296.01434.48157.02155.77582.02155.35144,0,.78564-.03229,1.30219-.09686l-.03229-.47351c-.17938-.04303-.34271-.08606-.48962-.12915ZM142.04651,36.47461c-.37311,0-.77856-.0108-1.21606-.03229v-6.29565c.26532-.02863.51282-.05011.74255-.06458.22955-.01428.44476-.02155.64569-.02155,1.17657,0,2.04108.25122,2.59363.7533.55237.50232.82861,1.29871.82861,2.38916,0,1.12646-.28888,1.95325-.86633,2.48059-.57758.52734-1.48694.79102-2.72809.79102ZM160.98407,38.59467c-.22601-.45203-.52734-.83942-.90399-1.16229-.37665-.32281-.79822-.60431-1.26453-.84479-.46643-.2403-.94702-.46814-1.44208-.68335-.45203-.20081-.88971-.40527-1.31293-.61346-.4234-.20801-.80176-.44476-1.13538-.71027-.33362-.26532-.59912-.57391-.79639-.92554-.19739-.35144-.29596-.76038-.29596-1.22681,0-.81793.28149-1.45636.84479-1.91565.56317-.45905,1.31836-.68872,2.26538-.68872.63123,0,1.32373.12561,2.07703.37665l.69952,2.67969.43048-.07532.63495-3.35767-.07532-.07538c-1.24133-.26532-2.42865-.39813-3.56219-.39813-1.60718,0-2.9541.3551-4.04108,1.06537-1.08691.71033-1.63037,1.71484-1.63037,3.01331,0,.64575.11469,1.21069.34436,1.69501.22955.48425.53625.89325.9201,1.22687.38379.33362.81256.62604,1.28607.87708.47351.25122.96136.48425,1.46362.69952.44476.20093.87524.40356,1.29138.60803.41602.20447.78729.43231,1.11389.68335.32635.25122.58649.55072.78021.89862.19373.34808.29059.75165.29059,1.21069,0,.87543-.29968,1.54974-.89862,2.02325-.59912.47351-1.43317.71027-2.50214.71027-.79639,0-1.57495-.1507-2.33533-.45203l-.7533-3.05634-.48431.07532-.52728,3.65906.06451.08606c1.38458.38745,2.64746.58118,3.78821.58118,1.77197,0,3.21588-.37671,4.3316-1.13,1.11554-.75336,1.67346-1.84381,1.67346-3.27161,0-.60266-.11298-1.13-.33899-1.58197Z" fill="#fdfbe5" fill-rule="evenodd"/></g></g></svg>