<svg viewBox="0 0 389 93" fill="none" xmlns="http://www.w3.org/2000/svg">
<g id="homepage-logo-link-letter-group">
<g id="b">
<g id="c">
<path id="Vector" fill-rule="evenodd" clip-rule="evenodd" d="M35.6618 5.85935C32.0581 2.58611 26.673 0.949256 19.507 0.949256C17.5002 0.949256 15.5444 1.00081 13.6405 1.10323C11.7362 1.20611 9.76017 1.25711 7.71315 1.25711C5.21457 1.25711 2.64352 1.21629 -3.05176e-05 1.13399L0.0614897 2.45768L3.87317 3.65827C4.34436 3.82276 4.59022 4.17153 4.61089 4.705C4.63108 5.38216 4.64644 6.14163 4.65705 6.98295C4.66709 7.82473 4.67241 8.76847 4.67241 9.81507V34.7809C4.67241 36.0122 4.66709 37.1359 4.65705 38.1518C4.64642 39.1677 4.63108 40.0863 4.61089 40.907C4.59022 41.3793 4.31365 41.6972 3.78096 41.8612L-3.05176e-05 43.0003L0.12301 44.324C2.72524 44.2624 5.26548 44.2316 7.74384 44.2316C9.62763 44.2316 11.3471 44.2624 12.9033 44.324C14.4595 44.3855 16.2303 44.4164 18.2168 44.4164C25.4444 44.4164 31.06 42.3182 35.0628 38.121C39.0657 33.9242 41.0675 28.0291 41.0675 20.4356C41.0675 13.9916 39.2655 9.13306 35.6618 5.85935ZM30.0938 37.1051C27.2658 40.2966 23.1467 41.8921 17.7365 41.8921C16.5684 41.8921 15.4052 41.8665 14.2477 41.8151C13.0896 41.7641 11.9062 41.6564 10.6972 41.4919V3.84301C12.1112 3.74058 13.3763 3.66892 14.4936 3.62753C15.6102 3.58661 16.6299 3.56592 17.5521 3.56592C23.3719 3.56592 27.6241 5.11041 30.3089 8.19893C32.9933 11.2879 34.3358 16.0335 34.3358 22.4365C34.3358 29.0243 32.9218 33.9141 30.0938 37.1051ZM77.9915 42.1383C77.2125 41.8921 76.6131 41.5177 76.1933 41.0147C75.7731 40.5121 75.3066 39.5524 74.7947 38.1364L61.1465 0.487577L57.9803 0.949256L42.2725 38.5058C41.8216 39.5938 41.4119 40.3941 41.043 40.9069C40.6742 41.4202 40.1001 41.7997 39.3216 42.0459L36.2169 43.0003L36.3706 44.324C38.6453 44.2624 40.7049 44.2316 42.5492 44.2316C44.3936 44.2316 46.7706 44.2624 49.6807 44.324L49.6192 42.9387L46.7605 42.1075C46.3711 41.9844 46.079 41.8358 45.8844 41.6611C45.6894 41.487 45.5924 41.2253 45.5924 40.8762C45.5924 40.4865 45.7154 39.9525 45.9613 39.2754C46.2073 38.5981 46.5454 37.6851 46.9757 36.5356L50.2033 28.3162H65.0196L67.9091 36.5664C68.2981 37.6746 68.6007 38.5625 68.8159 39.2292C69.0311 39.8964 69.1387 40.4351 69.1387 40.8453C69.1387 41.2148 69.0513 41.487 68.8774 41.6611C68.7031 41.8358 68.411 41.9949 68.0012 42.1383L65.081 43.0003L65.2041 44.324C68.3803 44.2624 71.1367 44.2316 73.4729 44.2316C75.7677 44.2316 78.2577 44.2624 80.9425 44.324L80.881 43.0003L77.9915 42.1383ZM51.3406 25.5149L58.011 8.55299L64.0053 25.5149H51.3406ZM95.7188 6.90596C95.729 6.0546 95.7443 5.2697 95.765 4.55102C95.8059 4.03835 96.0724 3.71988 96.5642 3.59676L100.376 2.45767L100.253 1.13398C97.6295 1.21629 95.0887 1.25708 92.6296 1.25708C90.1906 1.25708 87.6498 1.21627 85.0062 1.13398L85.0678 2.45767L88.8794 3.65825C89.3506 3.82274 89.5965 4.1715 89.6171 4.70497C89.6373 5.38213 89.6527 6.14161 89.6632 6.98294C89.6734 7.82472 89.6786 8.76844 89.6786 9.81505V34.7809C89.6786 36.0122 89.6734 37.1359 89.6632 38.1518C89.6527 39.1677 89.6373 40.0863 89.6171 40.9069C89.5758 41.3995 89.2991 41.7178 88.7872 41.8612L85.0062 43.0003L85.1292 44.324C87.7315 44.2624 90.2728 44.2316 92.7525 44.2316C95.1911 44.2316 97.7323 44.2624 100.376 44.324L100.314 43.0003L96.8409 41.9228C96.144 41.7381 95.7852 41.3893 95.765 40.8762C95.7443 40.0556 95.729 39.1421 95.7189 38.1364C95.7084 37.1311 95.7035 36.0122 95.7035 34.7809V9.69196C95.7035 8.68662 95.7083 7.75791 95.7188 6.90596ZM130.447 24.6222C129.371 23.6987 128.167 22.8935 126.835 22.2057C125.503 21.5183 124.13 20.8666 122.716 20.2508C121.425 19.6765 120.175 19.0916 118.966 18.4962C117.756 17.9012 116.676 17.2239 115.723 16.4645C114.77 15.7054 114.011 14.8227 113.448 13.817C112.884 12.8117 112.603 11.642 112.603 10.3076C112.603 7.96807 113.407 6.14162 115.016 4.8281C116.624 3.51491 118.781 2.85788 121.486 2.85788C123.289 2.85788 125.267 3.21727 127.419 3.93535L129.417 11.6006L130.647 11.3851L132.46 1.78051L132.245 1.56493C128.699 0.806024 125.308 0.425949 122.07 0.425949C117.48 0.425949 113.632 1.44181 110.528 3.47365C107.423 5.50537 105.871 8.37877 105.871 12.0931C105.871 13.9402 106.198 15.5563 106.855 16.9416C107.51 18.3268 108.386 19.4967 109.483 20.4509C110.579 21.4053 111.804 22.2418 113.156 22.9598C114.509 23.6785 115.902 24.3452 117.337 24.9608C118.607 25.5357 119.837 26.1152 121.025 26.7001C122.214 27.285 123.274 27.9367 124.207 28.655C125.139 29.3735 125.882 30.2302 126.435 31.2254C126.989 32.221 127.265 33.3755 127.265 34.6885C127.265 37.1927 126.409 39.1215 124.699 40.476C122.987 41.8305 120.605 42.5077 117.552 42.5077C115.277 42.5077 113.053 42.0768 110.881 41.2148L108.73 32.4721L107.346 32.6876L105.84 43.1542L106.025 43.4005C109.979 44.5087 113.586 45.0628 116.845 45.0628C121.906 45.0628 126.03 43.9853 129.217 41.8305C132.404 39.6756 133.997 36.5564 133.997 32.4721C133.997 30.7482 133.674 29.2398 133.029 27.947C132.383 26.654 131.523 25.5457 130.447 24.6222ZM168.831 1.25708C166.515 1.25708 164.251 1.21627 162.037 1.13398L162.099 2.55003L164.865 3.28894C165.767 3.53515 166.218 3.97673 166.218 4.61262C166.218 5.06425 166.044 5.63901 165.695 6.33653C165.347 7.03439 164.916 7.87569 164.404 8.86081L157.296 22.3134L149.158 8.18354C148.686 7.36292 148.292 6.6395 147.974 6.01332C147.656 5.38749 147.498 4.85886 147.498 4.42791C147.498 4.14077 147.59 3.89975 147.775 3.70451C147.959 3.5096 148.266 3.36105 148.697 3.25806L151.586 2.45767L151.463 1.13398C148.512 1.21629 145.654 1.25708 142.887 1.25708C139.71 1.25708 137.19 1.21627 135.325 1.13398L135.387 2.45767L138.184 3.31967C138.983 3.54577 139.623 3.93534 140.105 4.4894C140.586 5.04356 141.206 5.94684 141.965 7.19841L152.785 25.9767V34.6885C152.785 35.9198 152.78 37.0436 152.77 38.0594C152.759 39.0753 152.744 39.9939 152.724 40.8146C152.682 41.3071 152.406 41.6255 151.894 41.7688L147.775 43.0003L147.897 44.324C150.725 44.2624 153.384 44.2316 155.875 44.2316C158.303 44.2316 160.951 44.2624 163.82 44.324L163.759 43.0003L159.947 41.8304C159.25 41.6457 158.892 41.297 158.871 40.7838C158.851 39.9632 158.835 39.0497 158.825 38.0441C158.815 37.0387 158.81 35.9199 158.81 34.6885V25.3303L169.446 6.33653C169.855 5.61833 170.26 5.01283 170.66 4.52028C171.059 4.02772 171.628 3.66891 172.366 3.4428L175.471 2.45768L175.348 1.13399C173.237 1.21631 171.064 1.25708 168.831 1.25708ZM216.661 41.6457C210.861 41.6457 206.322 39.8602 203.044 36.2893C199.765 32.7184 198.125 27.9367 198.125 21.9439C198.125 16.3413 199.559 11.7853 202.429 8.27589C205.298 4.76648 209.242 3.01184 214.263 3.01184C216.333 3.01184 218.638 3.33018 221.18 3.96609L223.424 12.0623L224.653 11.8777L226.559 1.93437L226.344 1.68817C222.717 0.846859 219.171 0.425964 215.708 0.425964C208.495 0.425964 202.639 2.47838 198.141 6.58275C193.642 10.6876 191.393 16.2595 191.393 23.2985C191.393 29.907 193.438 35.2325 197.526 39.2754C201.614 43.3187 206.968 45.3399 213.587 45.3399C218.69 45.3399 223.259 43.9445 227.297 41.1532L226.959 39.768C223.352 41.02 219.919 41.6457 216.661 41.6457ZM269.957 4.705C269.977 4.17151 270.223 3.82276 270.695 3.65827L274.568 2.45768L274.445 1.13399C271.883 1.21631 269.383 1.25711 266.944 1.25711C264.505 1.25711 262.036 1.21629 259.536 1.13399L259.598 2.45768L263.01 3.53517C263.522 3.65828 263.788 3.97674 263.809 4.48943C263.85 5.9671 263.87 7.70162 263.87 9.69198V20.1277H241.492V9.69198C241.492 7.70164 241.512 5.9671 241.554 4.48943C241.574 3.97675 241.84 3.6583 242.353 3.53517L245.857 2.45768L245.704 1.13399C243.306 1.21631 240.877 1.25711 238.418 1.25711C235.979 1.25711 233.438 1.21629 230.795 1.13399L230.856 2.45768L234.668 3.65827C235.139 3.82276 235.385 4.17153 235.406 4.705C235.447 6.05945 235.467 7.76312 235.467 9.81507V34.7809C235.467 37.2028 235.447 39.2445 235.406 40.907C235.385 41.3793 235.109 41.6972 234.576 41.8612L230.795 43.0003L230.918 44.324C233.562 44.2624 236.102 44.2316 238.541 44.2316C240.98 44.2316 243.418 44.2624 245.857 44.324L245.765 43.0003L242.353 41.9228C241.84 41.7795 241.574 41.4303 241.554 40.8762C241.512 39.2345 241.492 37.2028 241.492 34.7809V22.9291H263.87V34.7809C263.87 37.2028 263.85 39.2345 263.809 40.8762C263.788 41.4303 263.522 41.7795 263.01 41.9228L259.536 43.0003L259.659 44.324C261.995 44.2624 264.382 44.2316 266.821 44.2316C269.281 44.2316 271.863 44.2624 274.568 44.324L274.506 43.0003L270.787 41.8612C270.254 41.6972 269.977 41.3793 269.957 40.907C269.915 39.2445 269.895 37.2028 269.895 34.7809V9.81507C269.895 7.76311 269.915 6.05945 269.957 4.705ZM319.176 42.1383C318.397 41.8921 317.798 41.5177 317.378 41.0147C316.958 40.5121 316.491 39.5524 315.979 38.1364L302.331 0.487577L299.165 0.949256L283.457 38.5058C283.006 39.5938 282.597 40.3941 282.228 40.9069C281.859 41.4202 281.285 41.7997 280.506 42.0459L277.402 43.0003L277.555 44.324C279.83 44.2624 281.89 44.2316 283.734 44.2316C285.578 44.2316 287.955 44.2624 290.866 44.324L290.804 42.9387L287.945 42.1075C287.556 41.9844 287.264 41.8358 287.069 41.6611C286.874 41.487 286.777 41.2253 286.777 40.8762C286.777 40.4865 286.9 39.9525 287.146 39.2754C287.392 38.5981 287.73 37.6851 288.161 36.5356L291.388 28.3162H306.204L309.094 36.5664C309.483 37.6746 309.786 38.5625 310.001 39.2292C310.216 39.8964 310.324 40.4351 310.324 40.8453C310.324 41.2148 310.236 41.487 310.062 41.6611C309.888 41.8358 309.596 41.9949 309.186 42.1383L306.266 43.0003L306.389 44.324C309.565 44.2624 312.321 44.2316 314.658 44.2316C316.953 44.2316 319.442 44.2624 322.128 44.324L322.066 43.0003L319.176 42.1383ZM292.525 25.5149L299.196 8.55299L305.19 25.5149H292.525ZM336.904 6.90596C336.914 6.0546 336.929 5.2697 336.95 4.55102C336.991 4.03835 337.257 3.71988 337.749 3.59676L341.561 2.45767L341.438 1.13398C338.814 1.21629 336.274 1.25708 333.814 1.25708C331.375 1.25708 328.835 1.21627 326.191 1.13398L326.252 2.45767L330.064 3.65825C330.535 3.82274 330.781 4.1715 330.802 4.70497C330.822 5.38213 330.838 6.14161 330.848 6.98294C330.858 7.82472 330.863 8.76844 330.863 9.81505V34.7809C330.863 36.0122 330.858 37.1359 330.848 38.1518C330.838 39.1677 330.822 40.0863 330.802 40.9069C330.761 41.3995 330.484 41.7178 329.972 41.8612L326.191 43.0003L326.314 44.324C328.916 44.2624 331.457 44.2316 333.937 44.2316C336.376 44.2316 338.917 44.2624 341.561 44.324L341.499 43.0003L338.026 41.9228C337.329 41.7381 336.97 41.3893 336.95 40.8762C336.929 40.0556 336.914 39.1421 336.904 38.1364C336.893 37.1311 336.888 36.0122 336.888 34.7809V9.69196C336.888 8.68662 336.893 7.75791 336.904 6.90596ZM388.877 1.13398C386.315 1.21629 384.215 1.25708 382.575 1.25708C380.956 1.25708 378.835 1.21627 376.212 1.13398L376.274 2.55003L379.901 3.59676C380.413 3.76125 380.68 4.07915 380.7 4.55102C380.741 5.98779 380.762 7.7016 380.762 9.69196V33.4264L354.941 1.13398C353.998 1.21629 353.066 1.25708 352.144 1.25708C350.607 1.25708 348.516 1.21627 345.873 1.13398L345.934 2.45767L349.746 3.65825C350.217 3.82274 350.463 4.1715 350.484 4.70497C350.524 6.05942 350.545 7.7631 350.545 9.81505V34.7809C350.545 37.2027 350.524 39.2445 350.484 40.9069C350.463 41.3793 350.186 41.6972 349.654 41.8612L345.873 43.0003L345.996 44.324C348.639 44.2624 350.76 44.2316 352.359 44.2316C353.998 44.2316 356.098 44.2624 358.66 44.324L358.599 42.9387L354.941 41.8612C354.449 41.7381 354.193 41.3893 354.172 40.8146C354.131 39.2138 354.111 37.2027 354.111 34.7809V9.90742L381.746 44.4778L384.327 44.2316V9.81505C384.327 7.76308 384.348 6.05942 384.389 4.70497C384.409 4.17149 384.655 3.82274 385.127 3.65825L389 2.45767L388.877 1.13398Z" fill="#FDFBE5"/>
</g>
</g>
<g id="d">
<g id="e">
<path id="Vector_2" fill-rule="evenodd" clip-rule="evenodd" d="M89.7725 55.8505C88.151 55.8505 86.4653 55.8234 84.7149 55.769L84.7556 56.6454L87.2794 57.4403C87.5913 57.5493 87.7541 57.7801 87.7678 58.1333C87.7812 58.5817 87.7913 59.0847 87.7983 59.6416C87.805 60.1989 87.8085 60.8238 87.8085 61.5168V80.513C87.8085 81.9672 87.7507 83.2716 87.6355 84.4264C87.52 85.5812 87.2555 86.6206 86.8418 87.5448C86.4277 88.4687 85.8171 89.2907 85.01 90.0111C84.2026 90.7312 83.0933 91.3901 81.6823 91.9882L81.9877 93.0073C83.385 92.6812 84.5928 92.321 85.6104 91.927C86.628 91.5327 87.4975 91.0742 88.2193 90.5512C88.941 90.028 89.5369 89.4302 90.0075 88.7576C90.4783 88.0851 90.843 87.3207 91.1022 86.4646C91.361 85.6086 91.5416 84.6334 91.644 83.5398C91.7464 82.4461 91.7976 81.2334 91.7976 79.9015V61.4352C91.7976 60.7696 91.8007 60.1547 91.8078 59.5907C91.8145 59.027 91.8246 58.5073 91.8384 58.0315C91.8654 57.692 92.0486 57.4811 92.3878 57.3996L94.9115 56.6455L94.8099 55.769C93.0729 55.8235 91.3937 55.8505 89.7725 55.8505ZM114.939 82.4697H105.169C105.142 81.0022 105.129 79.5142 105.129 78.006V70.5869H106.96C108.385 70.5869 109.979 70.6005 111.743 70.6276C112.055 70.6413 112.265 70.8248 112.374 71.1779L113.107 73.9703L114.206 73.8888C114.165 72.0002 114.145 70.6143 114.145 69.7308C114.145 68.8206 114.165 67.4142 114.206 65.5116L113.107 65.5524L112.394 68.3041C112.286 68.6438 112.055 68.8206 111.703 68.834C109.966 68.8614 108.392 68.8748 106.981 68.8748H105.129V57.6646H114.531L115.793 62.3728L116.607 62.2302L117.788 55.9321L117.666 55.769C114.287 55.8235 111.078 55.8505 108.039 55.8505H103.093C101.479 55.8505 99.7961 55.8235 98.0459 55.769L98.0865 56.6455L100.61 57.4403C100.922 57.5493 101.085 57.7802 101.099 58.1333C101.112 58.5817 101.122 59.0847 101.129 59.6416C101.136 60.1989 101.139 60.8239 101.139 61.5168V78.0467C101.139 78.862 101.136 79.606 101.129 80.2786C101.122 80.9512 101.112 81.5595 101.099 82.1028C101.071 82.429 100.888 82.6397 100.549 82.7347L98.0459 83.4888L98.1273 84.3653C99.8503 84.3244 101.533 84.3041 103.175 84.3041H108.019C110.99 84.3041 114.233 84.3244 117.747 84.3653L117.89 84.2226L118.337 77.1296L117.422 77.2926L114.939 82.4697ZM159.71 55.8505C158.204 55.8505 156.719 55.8234 155.253 55.769L155.294 56.7066L157.207 57.2161C157.478 57.2842 157.675 57.3725 157.797 57.4811C157.919 57.59 157.98 57.7665 157.98 58.011C157.98 58.2556 157.912 58.6091 157.777 59.0709C157.641 59.5329 157.451 60.1511 157.207 60.9257L151.468 78.6174L144.12 55.667L142.289 55.8097L134.738 78.4136L129.222 60.9053C129.005 60.1853 128.832 59.6044 128.703 59.1626C128.574 58.7212 128.51 58.3645 128.51 58.0926C128.51 57.8346 128.571 57.6375 128.693 57.5015C128.815 57.3659 129.019 57.2639 129.304 57.1958L131.217 56.6455L131.135 55.769C129.059 55.8235 127.2 55.8505 125.559 55.8505C123.741 55.8505 122.167 55.8235 120.837 55.769L120.878 56.6455L122.73 57.2162C123.232 57.3659 123.622 57.6136 123.9 57.9601C124.178 58.3066 124.426 58.7992 124.643 59.4378L132.784 84.4672L134.84 84.3041L142.309 62.7601L149.453 84.4672L151.508 84.3041L160.341 59.2136C160.572 58.575 160.806 58.1266 161.044 57.8684C161.281 57.6103 161.603 57.42 162.01 57.2977L164.066 56.6455L163.985 55.769C162.601 55.8235 161.176 55.8505 159.71 55.8505ZM183.51 82.4697H173.74C173.713 81.0022 173.7 79.5142 173.7 78.006V70.5869H175.531C176.956 70.5869 178.55 70.6005 180.314 70.6276C180.626 70.6413 180.836 70.8248 180.945 71.1779L181.678 73.9703L182.777 73.8888C182.736 72.0002 182.716 70.6143 182.716 69.7308C182.716 68.8206 182.736 67.4142 182.777 65.5116L181.678 65.5524L180.966 68.3041C180.857 68.6438 180.626 68.8206 180.274 68.834C178.537 68.8614 176.963 68.8748 175.552 68.8748H173.7V57.6646H183.102L184.364 62.3728L185.178 62.2302L186.359 55.9321L186.237 55.769C182.858 55.8235 179.649 55.8505 176.61 55.8505H171.664C170.05 55.8505 168.367 55.8235 166.617 55.769L166.658 56.6455L169.181 57.4403C169.493 57.5493 169.656 57.7802 169.67 58.1333C169.683 58.5817 169.693 59.0847 169.7 59.6416C169.707 60.1989 169.71 60.8239 169.71 61.5168V78.0467C169.71 78.862 169.707 79.606 169.7 80.2786C169.693 80.9512 169.683 81.5595 169.67 82.1028C169.642 82.429 169.459 82.6397 169.12 82.7347L166.617 83.4888L166.698 84.3653C168.421 84.3244 170.104 84.3041 171.746 84.3041H176.59C179.561 84.3041 182.804 84.3244 186.318 84.3653L186.461 84.2226L186.908 77.1296L185.993 77.2926L183.51 82.4697ZM206.809 82.4697H196.897C196.87 81.0022 196.857 79.5142 196.857 78.006V61.4352C196.857 61.4626 196.86 61.0209 196.867 60.1103C196.874 59.2003 196.884 58.5072 196.897 58.0315C196.924 57.6919 197.101 57.4811 197.427 57.3996L199.95 56.6454L199.869 55.769C198.132 55.8234 196.45 55.8505 194.821 55.8505C193.207 55.8505 191.524 55.8234 189.774 55.769L189.815 56.6454L192.338 57.4403C192.65 57.5493 192.813 57.7801 192.827 58.1333C192.84 58.5817 192.85 59.0847 192.857 59.6416C192.864 60.1989 192.868 60.8238 192.868 61.5168V78.0467C192.868 78.862 192.864 79.606 192.857 80.2785C192.85 80.9512 192.84 81.5595 192.827 82.1028C192.8 82.429 192.616 82.6397 192.277 82.7347L189.774 83.4888L189.855 84.3653C191.578 84.3244 193.261 84.3041 194.903 84.3041H200.011C202.996 84.3041 206.246 84.3244 209.76 84.3653L209.882 84.2226L210.33 76.9257L209.414 77.0684L206.809 82.4697ZM229.97 82.4697H220.059C220.031 81.0022 220.018 79.5142 220.018 78.006V61.4352C220.018 61.4626 220.021 61.0209 220.028 60.1103C220.035 59.2003 220.045 58.5072 220.059 58.0315C220.086 57.6919 220.262 57.4811 220.588 57.3996L223.112 56.6454L223.03 55.769C221.293 55.8234 219.611 55.8505 217.983 55.8505C216.368 55.8505 214.686 55.8234 212.935 55.769L212.976 56.6454L215.5 57.4403C215.812 57.5493 215.974 57.7801 215.988 58.1333C216.001 58.5817 216.012 59.0847 216.019 59.6416C216.025 60.1989 216.029 60.8238 216.029 61.5168V78.0467C216.029 78.862 216.025 79.606 216.019 80.2785C216.012 80.9512 216.001 81.5595 215.988 82.1028C215.961 82.429 215.778 82.6397 215.439 82.7347L212.935 83.4888L213.017 84.3653C214.74 84.3244 216.422 84.3041 218.064 84.3041H223.173C226.157 84.3041 229.407 84.3244 232.921 84.3653L233.044 84.2226L233.491 76.9257L232.576 77.0684L229.97 82.4697ZM252.989 82.4697H243.22C243.193 81.0022 243.179 79.5142 243.179 78.006V70.5869H245.011C246.436 70.5869 248.03 70.6005 249.794 70.6276C250.106 70.6413 250.316 70.8248 250.425 71.1779L251.157 73.9703L252.256 73.8888C252.216 72.0002 252.195 70.6143 252.195 69.7308C252.195 68.8206 252.216 67.4142 252.256 65.5116L251.157 65.5524L250.445 68.3041C250.336 68.6438 250.106 68.8206 249.753 68.834C248.016 68.8614 246.442 68.8748 245.031 68.8748H243.179V57.6646H252.582L253.844 62.3728L254.658 62.2302L255.838 55.9321L255.716 55.769C252.338 55.8235 249.129 55.8505 246.09 55.8505H241.144C239.529 55.8505 237.847 55.8235 236.096 55.769L236.137 56.6455L238.661 57.4403C238.973 57.5493 239.136 57.7802 239.149 58.1333C239.163 58.5817 239.173 59.0847 239.18 59.6416C239.187 60.1989 239.19 60.8239 239.19 61.5168V78.0467C239.19 78.862 239.187 79.606 239.18 80.2786C239.173 80.9512 239.163 81.5595 239.149 82.1028C239.122 82.429 238.939 82.6397 238.6 82.7347L236.096 83.4888L236.178 84.3653C237.901 84.3244 239.583 84.3041 241.225 84.3041H246.069C249.041 84.3041 252.283 84.3244 255.798 84.3653L255.94 84.2226L256.388 77.1296L255.472 77.2926L252.989 82.4697ZM283.178 83.3053C282.9 83.2238 282.635 83.1289 282.384 83.02C282.133 82.9114 281.892 82.7722 281.662 82.6022C281.431 82.4325 281.2 82.2322 280.97 82.001C280.522 81.5526 280.038 80.9411 279.517 80.1666C278.996 79.3919 278.423 78.4987 277.797 77.4862C277.171 76.4742 276.494 75.3598 275.765 74.1436C275.036 72.9276 274.238 71.6672 273.372 70.3627C275.572 69.6834 277.209 68.7152 278.282 67.4582C279.355 66.2015 279.891 64.5607 279.891 62.5359C279.891 60.2938 279.11 58.5888 277.546 57.42C275.983 56.2515 273.638 55.667 270.512 55.667C270.224 55.667 269.834 55.6741 269.34 55.6875C268.846 55.7011 268.229 55.7215 267.489 55.7487C266.762 55.7759 266.145 55.7995 265.638 55.82C265.13 55.8403 264.712 55.8505 264.383 55.8505C262.714 55.8505 261.004 55.8235 259.254 55.769L259.294 56.6455L261.818 57.4403C262.13 57.5493 262.293 57.7802 262.307 58.1333C262.32 58.5817 262.33 59.0847 262.337 59.6416C262.344 60.1989 262.347 60.8239 262.347 61.5168V78.0467C262.347 78.862 262.344 79.606 262.337 80.2786C262.33 80.9512 262.32 81.5595 262.307 82.1028C262.279 82.429 262.096 82.6397 261.757 82.7347L259.254 83.4888L259.335 84.3653C261.058 84.3244 262.741 84.3041 264.383 84.3041C265.997 84.3041 267.612 84.3244 269.226 84.3653L269.165 83.4888L266.906 82.8163C266.567 82.7076 266.39 82.4426 266.377 82.0213C266.363 81.4914 266.353 80.9002 266.347 80.248C266.339 79.5959 266.336 78.862 266.336 78.0467V70.9742L267.76 71.0149C268.117 71.0286 268.409 71.0557 268.637 71.0965C268.864 71.1372 269.063 71.2121 269.235 71.3206C269.407 71.4295 269.565 71.579 269.709 71.769C269.854 71.9596 270.029 72.2174 270.236 72.5437C270.937 73.6309 271.604 74.7417 272.237 75.8761C272.87 77.0108 273.478 78.0809 274.063 79.0863C274.647 80.092 275.211 80.9921 275.754 81.7869C276.298 82.5819 276.851 83.1901 277.415 83.6111C277.677 83.8149 277.941 83.9815 278.209 84.1105C278.478 84.2399 278.777 84.3449 279.107 84.4264C279.437 84.5079 279.813 84.5622 280.235 84.5894C280.657 84.6166 281.146 84.6302 281.702 84.6302C282.367 84.6302 283.188 84.5691 284.165 84.4468L284.104 83.55C283.765 83.4685 283.456 83.3869 283.178 83.3053ZM268.636 69.5066C267.931 69.5066 267.164 69.4862 266.336 69.4455V57.5219C266.838 57.4677 267.306 57.427 267.741 57.3996C268.175 57.3725 268.582 57.3588 268.962 57.3588C271.187 57.3588 272.822 57.8346 273.867 58.7855C274.912 59.7368 275.434 61.2452 275.434 63.3104C275.434 65.4438 274.888 67.0097 273.796 68.0085C272.703 69.0072 270.983 69.5066 268.636 69.5066ZM304.451 73.5219C304.023 72.6658 303.453 71.9321 302.741 71.3206C302.029 70.7092 301.231 70.1761 300.35 69.7206C299.467 69.2655 298.559 68.834 297.622 68.4264C296.767 68.0461 295.94 67.6588 295.139 67.2645C294.339 66.8706 293.623 66.4222 292.992 65.9193C292.361 65.4168 291.859 64.8324 291.486 64.1664C291.113 63.5008 290.926 62.7263 290.926 61.8429C290.926 60.2938 291.459 59.0846 292.524 58.2148C293.589 57.3454 295.017 56.9104 296.808 56.9104C298.002 56.9104 299.312 57.1483 300.736 57.6237L302.059 62.6989L302.873 62.5563L304.074 56.197L303.932 56.0543C301.584 55.5518 299.339 55.3002 297.195 55.3002C294.155 55.3002 291.608 55.9728 289.552 57.318C287.497 58.6633 286.469 60.5658 286.469 63.025C286.469 64.248 286.686 65.318 287.12 66.2352C287.554 67.1524 288.135 67.927 288.86 68.5589C289.586 69.1907 290.397 69.7446 291.293 70.22C292.188 70.6958 293.111 71.1371 294.061 71.5448C294.902 71.9254 295.716 72.3092 296.503 72.6964C297.29 73.0837 297.992 73.5152 298.609 73.9906C299.227 74.4664 299.719 75.0337 300.085 75.6926C300.451 76.3518 300.635 77.1162 300.635 77.9856C300.635 79.6436 300.068 80.9207 298.935 81.8175C297.802 82.7143 296.225 83.1627 294.203 83.1627C292.697 83.1627 291.225 82.8773 289.787 82.3066L288.362 76.518L287.446 76.6607L286.449 83.5907L286.571 83.7537C289.189 84.4875 291.578 84.8544 293.735 84.8544C297.086 84.8544 299.817 84.141 301.927 82.7143C304.037 81.2875 305.092 79.2222 305.092 76.5181C305.092 75.3767 304.878 74.3779 304.451 73.5219Z" fill="#FDFBE5"/>
</g>
</g>
</g>
</svg>
