<?xml version="1.0" encoding="UTF-8"?><svg id="a" xmlns="http://www.w3.org/2000/svg" viewBox="0 0 205.69116 163.2673"><path d="M168.00415,38.54474c-1.16113-.62256-2.41736-1.0625-3.74164-1.22998-5.41858-.68512-10.78662-.20233-16.05957,1.03259-8.76935,2.05371-16.87164,5.66589-24.21851,10.90802-3.09686,2.20959-6.09332,4.54584-8.75848,6.94147,2.65356-3.89148,4.83771-8.28778,6.89911-12.74298,1.03784-2.24316,1.9519-4.54376,2.71039-6.90631,1.57166-4.89539,2.3078-9.9187,2.71039-15.03326.422-5.36121-.4527-10.39478-2.95795-15.15588-1.17365-2.23041-2.88452-3.86713-5.10321-5.05878-1.59082-.85437-3.2959-1.10413-5.03516-1.29962h-4.07867c-2.15631.53326-4.3714.86371-6.40692,1.81702-6.1358,2.87378-10.79279,7.35413-14.11035,13.20422-4.33002,7.63525-5.40149,16.02167-5.28406,24.60437.10809,7.90253,1.78766,15.5683,3.93939,23.1416.74194,2.61127,1.39301,5.24811,2.24524,7.85046-.30176-.12378-.51196-.29596-.72107-.46948-6.05029-5.02118-12.68964-9.08521-20.20538-11.44299-13.56525-4.25562-27.49042-6.13422-41.71356-5.46478-3.31.15576-6.60895.66101-9.59033,2.3053-3.13751,1.73047-4.14429,4.4599-2.87701,7.78857.39069,1.02631,1.11145,1.83942,1.87091,2.60779,3.11053,3.14697,6.90778,5.28192,10.85199,7.14789,11.9953,5.67474,24.5,9.64893,37.76953,10.93384,5.4176.5246,10.84698.59967,16.2821.1452,2.4082-.20135,4.79547-.50507,7.37836-1.14056-1.44165,1.3692-2.74371,2.48584-3.90808,3.73083-8.50134,9.09039-15.25983,19.34448-20.28815,30.71643-4.59064,10.38208-7.14435,21.20392-6.55536,32.62451.16888,3.27362,1.12042,6.35388,3.11523,9.02948,1.37213,1.84045,3.08344,3.19586,5.37457,3.77087,3.17834.79761,6.17743.22614,9.09668-1.0578,3.51483-1.54584,6.3576-4.00067,8.82703-6.8573,11.67371-13.50403,18.43274-28.87946,17.76105-47.04199-.01654-.44672-.00208-.89453-.00208-1.34186.39935.38898.638.79297.83429,1.21655,3.26526,7.04694,7.29358,13.64075,11.86249,19.91223,4.06232,5.57605,8.52332,10.77521,14.18951,14.8205,4.71338,3.36499,9.90326,5.52185,15.72449,5.8714,5.46857.32837,9.57983-1.64478,10.97681-7.37708.58386-2.396.50055-4.83276.22736-7.2572-.66882-5.93549-2.98541-11.30823-5.927-16.40875-9.47034-16.4209-23.34088-28.00592-40.2243-36.24384-.27484-.13409-.74847-.06354-.78259-.50787,2.1593-.50488,4.31641-.92657,6.42664-1.51587,14.94873-4.17438,28.91205-10.61603,42.11938-18.67438,5.39667-3.29272,10.54315-7.02271,12.66315-13.47992v-4.31238c-.28491-2.02264-1.64868-3.2113-3.30664-4.10028ZM88.5788,36.16815c.27161-6.09143,1.02948-12.12061,3.85956-17.61145,3.33899-6.47839,8.0813-11.58112,15.28235-13.85779,2.53662-.80194,5.17999-1.1355,7.79633-.45563,3.83923.99768,5.58655,4.02069,6.77087,7.4527,1.2085,3.50201,1.19244,7.13257.92621,10.77277-1.01501,13.87653-7.32819,25.58026-15.12689,36.66034-3.55902,5.05652-7.38763,9.92889-10.39215,15.35846-.41821.7558-.8092,1.52667-1.23907,2.34021-.8703-.98303-.86511-2.1283-1.06757-3.20135-.99792-5.28955-2.755-10.38141-4.06079-15.59082-1.79968-7.17963-3.08069-14.42346-2.74884-21.86743ZM87.77643,79.49469c-7.35315,1.00165-14.74835,1.17224-22.11804.46204-6.84564-.65967-13.5166-2.32227-20.06012-4.44928-7.41522-2.4104-14.67035-5.18347-21.2616-9.44348-1.40863-.91034-2.82867-1.8158-3.97363-3.06152-1.65027-1.79559-1.38214-3.18524.84186-4.18243,2.63617-1.18201,5.48224-1.35242,8.30695-1.57654,5.00146-.39685,9.97864.09192,14.94885.52319,8.1347.70587,16.10754,2.22754,23.8913,4.76257,8.6579,2.8197,15.91211,7.84412,22.54041,13.90985.75201.68817,1.49286,1.38843,2.37335,2.20837-1.93829.56854-3.73236.60785-5.48932.84723ZM91.83154,139.47589c-3.40436,5.97327-7.33142,11.50427-12.54053,16.04865-1.95044,1.70154-4.15607,2.96979-6.70978,3.53845-4.12225.91803-7.31964-.85541-8.84039-4.81989-1.06726-2.7821-1.22333-5.67377-1.104-8.59406.29315-7.1723,1.55615-14.16565,4.07709-20.90289,4.80811-12.85004,11.90369-24.30682,21.09033-34.49573,2.51263-2.78674,4.9115-5.67572,7.35913-8.52075.15063-.17511.27106-.3761.54474-.76074.3241,2.27307.59308,4.23645.88556,6.19629.729,4.88409,2.04755,9.6651,2.56665,14.58594,1.40503,13.3197-.62213,25.9574-7.3288,37.72473ZM149.06738,122.11536c2.44489,4.49323,3.93872,9.30347,4.04395,14.99054.08087.69476-.1261,1.88275-.30176,3.06201-.40295,2.70441-2.47614,4.30994-5.78998,4.21893-5.11237-.14044-9.81085-1.659-13.9502-4.73187-5.46948-4.06036-10.04663-8.98285-14.02856-14.48273-6.89886-9.52887-12.41479-19.76501-15.88989-31.03754-1.16016-3.76343-2.60785-7.43945-3.46606-11.29443-.10992-.4939-.38202-1.20825-.16315-1.4599.34735-.39948.93964.09009,1.39893.25385,21.08386,7.51971,37.39539,20.72241,48.14673,40.48114ZM166.79175,47.6452c-1.49915,2.97821-4.03186,5.00989-6.65314,6.92566-7.22955,5.28351-15.27905,9.06683-23.36523,12.80719-10.08289,4.664-20.66956,7.77252-31.39783,10.48126-1.96124.49518-3.85352,1.25757-6.03455,1.60992,8.36926-10.25061,17.01642-19.89948,27.91504-27.22119,8.09247-5.43646,16.88214-9.1629,26.6156-10.45569,3.25775-.43268,6.52405-.57947,9.79614-.12756,3.71796.51355,4.83051,2.59052,3.12396,5.98041Z" fill="#367336" opacity=""/></svg>