<?xml version="1.0" encoding="UTF-8"?><svg id="a" xmlns="http://www.w3.org/2000/svg" viewBox="0 0 94.71842 136.64512"><path d="M68.79892,128.76684c-.01208.01611-.00805.05945.00805.1259.03526.17323.1259.81484.19238,1.42416.14603,1.25493.03928,1.18847.99609.63754.51066-.29507.58618-.10272-.59021-1.55006-.41295-.5157-.57911-.69293-.60632-.63754ZM66.00195,123.42372l-.25582.49253c-.142.27092-.55495,1.00719-.92057,1.63969-1.33352,2.29033-2.0184,3.89984-2.63581,6.20529-.20142.75539-.50762,2.31246-.50762,2.58036,0,.18135.25985.10979,2.06878-.56199,2.04659-.75939,4.39937-1.80991,4.46988-1.99526.10979-.28296-.20446-2.57335-.49151-3.56843-.15811-.54693-.53178-1.60145-.83091-2.34879-.30217-.74328-.62547-1.60139-.71915-1.90052l-.17726-.54288ZM66.9185,123.31393c-.14603,0,.31425.96791,1.06964,2.24601.25985.43714.46834.82695.46834.86623s.25985.44415.57813.9044c.31926.45626.65768.94879.75539,1.0938.09467.14207.22459.3153.28401.38581.05843.07045.33841.40487.62547.74728.28705.34247.55898.62949.60533.62949.18129.01617,4.18283-2.63981,4.69448-3.11623.11785-.11379-1.53494-1.18042-2.89969-1.87636-1.80589-.91651-4.94932-1.87237-6.1811-1.88042ZM56.09929,120.53205c-3.57249.11084-6.81059.85012-6.99895,1.5934-.09467.38169.0111.53181.57813.81883,1.38891.7,3.43854,1.17642,6.26673,1.44734,1.30229.1259,3.68729.05539,4.77304-.14102,2.05366-.37063,4.50818-1.05046,4.50818-1.25191,0-.10979-1.1049-.75539-2.12417-1.24288-2.06976-.98702-3.97739-1.32144-7.00297-1.22376ZM17.88058,118.99011v.41698c.01209,1.72729.65769,3.18268,1.51482,3.41536v.00301c.11482.02822.34647.03627.5197.00805.35352-.05035,1.25093-.5741,1.25093-.72717,0-.05539-.3777-.42503-.83395-.81889-.46029-.39276-1.19955-1.07364-1.64473-1.50672l-.80677-.79061ZM78.89495,112.25399c-.89739.00805-2.56128.4412-3.7417,1.03946-2.87249,1.44728-5.17391,3.90986-7.59318,8.11589-.46834.81883-.84201,1.4876-.82286,1.4876.13395,0,4.88686-2.48674,5.57881-2.91982.99609-.62144.96388-.60128,2.9591-2.08894,3.38315-2.51797,4.97249-4.58773,4.2171-5.49219-.08259-.10272-.2951-.146-.59728-.142ZM22.57509,106.99048c0,.19235,1.55006,2.97423,2.12012,3.80006,1.99524,2.89566,4.97349,5.5083,7.01908,6.16502.73928.23667,1.98617.26385,2.48273.05539.19237-.07856.43611-.27092.53883-.42503.16115-.2518.16921-.36159.05842-1.00319-.41696-2.43535-3.29249-5.37834-6.95562-7.12881-1.21568-.57816-2.1161-.90145-3.38718-1.1996-.94474-.22456-1.87638-.35858-1.87638-.26385ZM66.71404,106.3257c-1.26301.07051-2.69523,1.14015-3.51003,2.6872-.51066.97491-.71208,1.96298-.70403,3.4536.01208,2.30545.48444,3.85957,2.33364,7.68785.59021,1.2197,1.09685,2.21484,1.13309,2.21884.03123,0,.13699-.27491.22764-.61332.09467-.34247.53178-1.4091.96791-2.37295,1.29827-2.86345,1.63265-3.84347,2.08184-6.08646.22361-1.12097.16518-3.69335-.11078-4.58668-.4049-1.32249-1.12101-2.21183-1.8925-2.35684-.17323-.03123-.34951-.04328-.52677-.03123ZM8.4231,104.95994c-.27193,0-1.29827.44519-1.58933.68494-.56705.47937-.22461.80272,1.50271,1.41605.85711.29913,1.2469.36565,1.18446.20446-.37066-.98702-1.00015-2.30545-1.09785-2.30545ZM33.20494,97.00923c-1.17639.02717-3.10415.76344-4.51221,1.7193-1.88848,1.2781-3.81623,3.50499-5.24442,6.05419-.26388.46831-.59424,1.05046-.73221,1.29525-.30619.53482-.45626.58615,2.01035-.66177,4.83147-2.44242,9.13619-5.97562,9.2933-7.64052.05842-.62144-.11079-.78256-.8148-.76646ZM90.00523,96.85111c-3.54931.07955-7.26282.93262-7.26282,1.78274,0,.29507.20446.48343.88934.82184,1.42014.70806,4.65824,1.3456,7.4552,1.46345.59424.02822,2.21481-.01512,2.25812-.0584.06747-.06651.76344-3.65917.71611-3.70244-.10979-.10979-1.0938-.22057-2.55725-.29108-.48749-.01912-.99108-.02717-1.4987-.01611ZM22.27595,91.69734c-1.0787.13395-2.31351,1.08575-2.98631,2.4434-.5197,1.05053-.67683,1.86536-.62547,3.25725.06648,1.99526.51467,3.44259,2.01035,6.51954.46029.94473.86518,1.82602.90446,1.95493.03927.1259.10272.23268.142.23268s.1813-.33436.31424-.74328c.12994-.40997.36259-1.00719.50764-1.33054.63754-1.39595.85006-1.86425,1.0505-2.30545.60632-1.3456,1.14919-3.5211,1.23581-4.95331.1531-2.43135-.45626-4.347-1.55409-4.91409-.29913-.15713-.64157-.20446-.99913-.16112ZM22.58617,90.88355c.5751.00701,1.11798.19235,1.56214.59421.85409.77051,1.30632,1.87237,1.46345,3.56444.17323,1.83309-.14503,4.02875-.85309,5.89306-.2518.65666-.2518.7.01913.37364,1.12906-1.36871,2.5774-2.72243,3.63493-3.3912,1.58229-.99508,3.27738-1.63262,4.65824-1.75047.65367-.05539,1.28718.19235,1.56216.61738.29913.45626.24777,1.31443-.1259,2.07382-.7,1.43222-4.32789,4.4689-7.60528,6.37754-.83798.48343-2.08084,1.0777-2.26214,1.0777-.25582,0,.01209.10973.89338.36558,4.91004,1.42416,9.41517,5.30384,10.07992,8.69098.22058,1.11802-.06346,1.8613-.88934,2.32967-.52675.29507-2.10502.3777-2.91882.14502-1.08978-.30718-2.46762-1.06257-3.56846-1.95493-.64159-.52376-2.85235-2.78593-3.36804-3.4547-.30316-.38974-.56301-.69189-.57813-.67683-.02013.02016.03123.33841.10577.70806.15711.74432.25985,2.71136.14603,2.71136-.03927,0-.21654-.18129-.3938-.40591-.22057-.27897-.32231-.51865-.32231-.76646,0-.73221-.46029-2.99033-.73221-3.57249-.17323-.3777-.84201-2.07382-1.06259-2.6912-.11783-.33436-.24777-.57005-.29108-.52376-.04331.04733-.23165.37069-.421.71211-.5469,1.00012-.83395,1.42115-.92358,1.36171-.05138-.02717-.15007-.19641-.22058-.37364-.1259-.29514-.11079-.35858.18029-.77156l.31525-.44814-.48747.18829-.49251.18534-.19238-.35753c-.10676-.19745-.17323-.3737-.15007-.3938.0282-.02016.421-.16924.87828-.33036.46029-.16118.85711-.31124.88129-.33036.08963-.07156-.38576-.35858-1.50777-.9095-.62949-.3102-1.21869-.58621-1.30933-.61339-.09066-.03123-.26389-.28702-.38174-.5741l-.21654-.52376.62144.21251c.34244.11385.93668.36159,1.32244.55099.38071.18528.70804.3263.72719.31419.01611-.01506-.23569-.53882-.55798-1.16026-1.85726-3.58355-2.40416-6.58194-1.66488-9.13919.67683-2.32562,2.71537-3.94619,4.44572-3.93408ZM47.74669,86.84674l-.28401,1.52283c-.41698,2.2259-.51872,3.32776-.45223,4.96038.0987,2.4394.36964,3.64706,1.21568,5.42574.48847,1.01524,1.0505,1.74346,1.49968,1.93581.12187.05139.38172.07051.57008.04733,1.12503-.14606,1.7505-1.47955,1.86127-3.96629.09771-2.21884-.20446-3.74873-1.08978-5.52748-.48042-.95979-.97193-1.64473-2.06573-2.86443-.23667-.25985-.61437-.71205-.84201-1.00313l-.41295-.53076ZM43.41881,86.25653c-1.99925.10168-5.5355,1.39693-7.63649,2.79288-.6456.42909-1.24689,1.05858-1.18847,1.24392.02013.0624.19639.2004.3938.29913.93267.47132,4.70155-.07156,7.39982-1.06257,1.13004-.41698,2.49479-1.18853,3.75377-2.12822l.99108-.74027-.5741-.1259c-.90044-.20047-2.30948-.32231-3.13941-.27897ZM50.83876,86.1618c-1.12906.05545-2.32558.25585-2.37194.40192-.05136.14901,2.04963,2.01739,3.17869,2.82411.92057.66177,2.83222,1.70418,3.87869,2.12115.31926.1259,1.00012.33841,1.51481.47236,1.68804.44015,3.16356.27903,4.01765-.44114.3777-.31825.4049-.69293.08966-1.30632-1.19957-2.35279-6.06227-4.27249-10.30756-4.07209ZM55.00952,74.96091c-.09064-.02717-.19739-.02318-.33439.00805-.17726.03928-.39783.12996-.66877.26692-1.42819.7131-2.96313,2.36084-3.89175,4.17475-.82993,1.62463-1.36878,3.34792-1.76965,5.68159l-.19739,1.14815,1.36171-1.408c1.64071-1.70018,2.57237-2.84433,3.77695-4.63912,1.23885-1.85626,1.93581-3.29653,2.00632-4.15465.05136-.65267-.02013-.99913-.28303-1.0777ZM44.53579,73.62336c-.19641-.03123-.38879-.02016-.58216.03928-.59021.17323-1.30229.86518-1.66388,1.60545-.77955,1.61252-.63754,3.19885.48346,5.44486.45223.90446,1.37379,2.03454,2.99436,3.67822l1.57324,1.5974.12187-1.49062c.2407-2.84027.27998-4.39839.142-5.56369-.33439-2.82816-1.70316-5.09839-3.0689-5.31091ZM44.23264,72.91131c.41796-.03123.84603.0624,1.25898.30313.75235.4361,1.34963,1.14114,1.84919,2.18361.73624,1.52185,1.0938,3.20586,1.09783,5.15777v.88934l.44919-1.11397c.24777-.61332.67584-1.49062.9518-1.94688,1.56214-2.58547,4.24529-4.59578,5.46096-4.09219.64059.2679.92862,1.38082.63352,2.45852-.46029,1.67596-3.15954,5.77221-5.13866,7.8017l-.89739.92155.85811-.0675c.91252-.07045,2.64789.0675,3.9381.31124,3.27336.6255,6.09448,2.27724,7.10167,4.1587.93265,1.74641-.38977,3.08396-3.05682,3.08801-1.51078.00406-2.62069-.3263-5.19002-1.53795-.40892-.1934-1.56116-.87729-2.01742-1.19659-.16214-.11379-.30718-.18829-.32732-.16918-.01915.02016.13798.34241.35049.71611.98401,1.73135,1.31034,3.10412,1.29827,5.47707-.00805,1.87643-.1531,2.71843-.66475,3.7649-.30718.62949-.66475.98702-1.32242,1.32943v-.004c-.45626.23667-.82187.21651-1.44734-.07457-.7-.3263-1.21165-.94774-1.81394-2.20267-1.07367-2.239-1.51078-5.00071-1.25496-7.9276.10577-1.23175.38575-2.82109.58216-3.32874.07051-.17323.05136-.16918-.1531.03522-.12992.1259-.61741.48048-1.08575.78662-2.62472,1.70418-5.72484,2.6872-8.93878,2.84132-1.03941.05035-1.42415.02717-1.89653-.11084-1.23985-.36153-1.37279-1.31738-.31928-2.27017,1.51885-1.37283,5.37034-3.0689,7.91649-3.48587.96791-.15713,3.12026-.14907,3.38718.01611.20446.1259.03123-.06645-1.2036-1.32949-2.1715-2.22689-3.18674-4.02875-3.49393-6.18918-.37367-2.63575,1.27509-5.06311,3.08804-5.193ZM23.58529,55.03375c.03223-.00811,0,.04328-.07452.14502-.08662.12289-.66072.77555-1.27409,1.46043-5.40659,5.97962-9.24196,13.62014-10.71345,21.36344-.85006,4.45273-.96791,9.74452-.31928,14.18723.701,4.77608,2.35279,9.87042,4.50918,13.91527,4.50514,8.4473,11.15762,15.12692,19.94733,20.02995,3.34789,1.86425,8.45836,3.94213,11.81834,4.7952.41295.10678.50762.16217.36562.22057v-.00406c-.21251.08662-.1803.08662-2.48575-.01506-6.49635-.28807-12.98364-2.16849-18.66518-5.40256-1.09682-.6255-3.38313-2.11206-4.14658-2.69827l-.60129-.46431-.32735.27497c-.71207.60232-1.81292.92457-2.53307.74328-.59424-.14901-1.36171-1.08169-1.64071-1.99015-.13798-.44519-.38977-2.30545-.3938-2.90378-.00403-.48042-.04331-.54687-.8259-1.42011-2.20373-2.45551-4.44975-5.65737-5.8034-8.27407-.22461-.43308-.38576-.62138-.57008-.66066-1.82602-.39786-3.45867-1.06663-3.85954-1.57828-.70401-.89641-.10272-1.83714,1.51885-2.36791.34143-.11078.63653-.20846.65668-.22463.01511-.01506-.20042-.74328-.4915-1.62457-.89338-2.73048-1.50374-5.46096-1.86129-8.3254-.14605-1.18448-.18533-2.23795-.18533-4.89793.00404-3.65511.13397-5.0561.7282-8.10889,1.16834-5.98773,3.80011-11.87778,7.54585-16.86638,2.57738-3.43854,6.03103-6.79445,9.39907-9.13113.16921-.11483.25582-.17323.28301-.17723ZM78.52029,53.5068l-.03123.40192c-.04733.56599.36257,2.95.6728,3.89074.28303.87324.93668,2.19166,1.40501,2.83622.36159.50359.72013.74838,1.22373.835.49957.08557.64864.04328,1.07367-.30718.41295-.34247.87324-1.13714.97596-1.68807.06648-.35753.03123-.42503-.68488-1.25093-.41295-.47642-1.6246-1.73541-2.6912-2.79392l-1.94386-1.92376ZM35.79743,52.50367c-.03928.00805-.05842.02416-.06244.05139-.06346.27897,1.24286,3.9693,1.79783,5.08327.89739,1.7978,2.04156,3.42643,3.28946,4.6733.60131.60632,1.30632,1.22376,1.56518,1.37382.48444.27897,1.37781.57005,1.92874.6255.47541.05133.99913-.08662,1.23885-.32636.31425-.31524.2951-1.77063-.03526-2.71942-1.18445-3.39926-4.81537-6.9083-8.75447-8.46236-.57812-.22862-.85711-.31425-.96791-.29913ZM34.95241,52.37777l-.27194.35052c-.14906.18829-.62547.75133-1.05855,1.24282-1.53396,1.74346-2.3528,2.92689-3.23005,4.68646-1.14819,2.28529-1.59337,3.94213-1.60445,5.94446-.01209,1.64067.20042,2.17144.98301,2.49375.63754.26391,1.56617-.14096,2.53811-1.10886.84502-.84201,1.68401-2.06177,2.26213-3.29352.59425-1.27005.80978-2.01437.99913-3.45366.18834-1.43222.14503-2.4394-.17323-4.12747-.11382-.60226-.25985-1.46338-.32633-1.91565l-.11783-.81883ZM24.52198,47.9401c-.47238.04733-.81079.26391-1.63265.75945-.71208.43308-1.31034.80272-1.32949.82184-.02013.02016.38576.25579.90849.52775,1.71927.88934,4.14255,1.67196,6.12168,1.97915.50359.07856,1.49163.14907,2.19163.15307,1.33352.01211,3.35997-.16112,3.50501-.29913.11886-.10979-.95985-1.05053-2.02141-1.76663-1.53495-1.0303-3.56041-1.70713-6.1106-2.04154-.46835-.06344-.81381-.11078-1.0938-.12989-.21253-.02016-.38174-.02016-.53885-.00406ZM68.77977,47.03164l-.9135.4522c-1.83309.90846-3.16258,1.9197-3.16258,2.40012,0,.16924.18433.3102.62547.47538.2951.10678,2.9702-.02717,3.96128-.2004.5469-.09873,1.49968-.31425,2.1171-.47943.61741-.16616,1.14114-.30313,1.17237-.30313.0272,0,.05136-.04733.05136-.10278,0-.11379-1.71927-1.14815-2.99436-1.80186l-.85713-.44009ZM47.58554,44.91854c-.23265-.00805-.51567-.00406-.87019.00805-.92862.03529-1.49467.11785-2.19065.31825-1.21568.35052-3.02559,1.25898-4.12744,2.06577-.90546.66072-2.91581,2.60864-4.04485,3.91496-.36159.41698-.60936.75939-.55094.75939.26389,0,4.01768-1.0978,5.06011-1.47549,1.5259-.55904,4.47695-1.99126,5.59393-2.71542,1.42819-.92758,2.13723-1.73836,2.06573-2.35979-.04331-.35052-.23972-.48853-.93569-.5157ZM32.77587,44.1712l-1.21568.42909c-1.50271.52677-3.72557,1.45939-4.97248,2.08888l-.93668.47538.5197.07555c2.01437.28708,3.73767.73523,5.00472,1.30232.71912.32231,2.24602,1.26599,2.45451,1.51379.17323.21251.33439.1934.2679-.02723-.52775-1.75446-.93265-3.71751-1.05855-5.15777l-.06346-.7ZM39.89769,42.49524c-.51165,0-5.24442,1.06159-5.98471,1.3456-.2669.10174-.28704.14907-.28301.71211,0,.77045.33439,2.72243.68085,3.98947.14906.54288.36964,1.42416.49554,1.95493s.2518.96385.28705.96385c.03121,0,.13395-.14901.22862-.33841.09066-.1843.41698-.69994.72418-1.14513,1.69912-2.45852,2.40315-3.55638,2.78487-4.31177.67683-1.35771,1.29021-3.17063,1.07063-3.17063h-.00403ZM47.06181,41.9161c-1.67999.00406-3.35192.09467-4.99263.27602-1.18445.12989-1.34963.2044-1.34963.57005,0,.66472-1.12101,3.34891-1.93178,4.63912l-.27095.42903.66877-.57109c2.37999-2.01837,5.28773-3.20285,7.86815-3.20285.95278,0,1.51078.15817,1.91263.53181.26289.2478.30217.35753.30217.84201-.00304.3102-.08563.74328-.19238.97596-.19641.4361-.92057,1.18343-1.63265,1.69108-2.05768,1.4715-7.00297,3.67927-9.07273,4.04891-.22762.03928-.45626.09768-.50359.1259-.05138.02717.23266.21251.62547.41292,1.51481.7715,3.56041,2.30139,4.74083,3.54427,2.26617,2.39207,3.58859,5.22933,3.35595,7.20442-.07051.64056-.34951,1.10893-.86921,1.46345-.33036.22463-.44015.24374-1.30229.19641-.67683-.03529-1.11295-.1219-1.57324-.3102-2.0073-.82289-3.90686-2.89566-5.78427-6.30703l-.58618-1.07063-.06244,1.01924c-.15711,2.43135-.86618,4.46589-2.30143,6.59411-.69293,1.0303-1.96401,2.29734-2.62069,2.61264-.75942.36153-1.68401.40081-2.23092.09061-.84605-.47236-1.26303-1.44832-1.26303-2.94699,0-2.58147,1.07467-5.74805,2.89164-8.51375.76749-1.17237,2.10906-2.83726,2.59754-3.23408.2951-.23674.2951-.24073.03928-.16924-.14605.03928-.91756.09768-1.72331.13395-3.20285.14102-6.38959-.57914-9.61964-2.17654l-1.48762-.73117-.9125.65666C8.6467,58.76736,1.70718,70.71159.19237,84.46673c-.25582,2.31252-.25582,7.38472-.00403,9.63878.52374,4.65824,1.58129,8.90755,3.25321,13.09343.71611,1.78575,2.55424,5.3824,3.64401,7.11676,8.12396,12.95948,21.63839,21.12375,36.86404,22.27294h.00403c1.40904.10573,6.07032.0544,7.66468-.08256,2.74963-.24073,6.85694-.99612,8.60037-1.58234l.57008-.19235.12187-.99206c.33036-2.6237,1.80186-6.57395,3.2653-8.7575.21251-.31425.41295-.6255.44919-.68488.03928-.06246-.31524.02016-.7876.18129-.46834.16112-1.46345.42097-2.21078.5741-1.23581.2518-1.57422.28001-3.80415.28401-1.88848.00707-2.70328-.03522-3.54931-.17723-3.77292-.63355-5.5627-1.32249-6.04715-2.31756-.32231-.66877-.22764-1.06964.38172-1.60951.2679-.23163.53482-.42097.59826-.42398.06246,0,.24374-.0675.40087-.14606,1.78271-.93268,8.28209-1.39293,10.9179-.77451.85006.2004,2.62472.82184,3.25018,1.1361.33439.16918.62949.30718.65669.30718.02819,0-.13798-.33442-.36159-.74328-.22459-.40892-.40892-.75539-.40892-.77156,0-.01506-.22862-.51165-.50762-1.10487-.65768-1.39693-1.20055-3.09711-1.42819-4.46583-.22459-1.34966-.15811-3.24619.14907-4.30071.74734-2.56432,2.82918-4.46085,4.91406-4.48101,2.08086-.01912,3.32874,1.85325,3.50502,5.27267.09467,1.80186-.18433,3.4496-.99108,5.84972-.17323.5157-.24777.85006-.16518.74027.53885-.71611,1.05452-1.28314,1.99827-2.21982,1.69609-1.67196,3.60774-2.82417,5.70166-3.43048,2.41122-.69594,3.53222-.35753,3.68228,1.11397.06648.64056-.17726,1.36472-.72013,2.12816-1.03842,1.45939-4.30775,4.16676-7.18829,5.94845-1.01828.62949-2.92689,1.64067-3.32069,1.75852-.22361.0675-.16921.10278.41698.26391,2.29838.63355,4.76499,1.84114,6.97174,3.41942.15408.10979.31926.00701,1.1653-.71611,6.17609-5.27267,10.70843-11.56759,13.58897-18.86164.62547-1.57723,1.68804-4.78008,1.60849-4.85459-.01512-.01617-.83798-.03928-1.82503-.05139-.98401-.01211-2.01437-.05945-2.29033-.10272-.27497-.04334-1.01426-.16118-1.64375-.25887-2.26214-.35452-4.43865-1.12202-5.1306-1.81796-.421-.42097-.55093-1.07469-.30316-1.55006.49957-.96791,2.29033-1.60139,5.69263-2.01032,1.23581-.15012,4.75291-.1894,5.95346-.0635l.79467.07856.12187-1.05753c.38575-3.39624.40892-7.86109.06246-10.88664-.979-8.52992-4.0912-16.44941-9.09188-23.14218l-.8148-1.08575-.22361.50765c-.50359,1.12503-1.42014,1.86936-2.30545,1.87335-.86617,0-1.85725-.72416-2.49882-1.82602-.95583-1.65278-1.60948-3.87967-1.80186-6.15291-.06648-.80272-.14505-1.49166-.16921-1.53494-.18433-.29514-3.77292-2.89972-3.99752-2.89972-.08662,0-.40087.09467-.69195.20446-2.10099.79873-6.21233,1.36171-7.68785,1.05452-1.67596-.34948-1.78173-1.5974-.24777-2.85232.49957-.40487,2.25409-1.48256,2.59653-1.5934.10272-.03123.18934-.09362.18934-.14096,0-.1934-3.54931-1.64074-5.84269-2.38506-4.64312-1.50273-9.77676-2.28123-14.82478-2.26617ZM38.94489,27.45389v11.05994l-.75539.1259c-.41698.06651-.99107.21251-1.27812.32231-.28705.10573-.53078.19641-.5469.19641-.05539,0-.02316-5.90511.04331-8.34052l.07051-2.53008.32331-.2004c.33439-.20446,1.08171-.44821,1.75451-.56605l.38878-.0675ZM32.07186,11.47292c.95984.02311,2.04257.10573,2.84429.24368,1.44029.2478,3.38012.72017,4.39536,1.07069,1.0938.3777,2.89566,1.30226,3.63897,1.86831.9518.72416,2.74256,2.45852,2.64387,2.55725-.12187.12184-3.86357.14606-4.93017.03123-1.94288-.20852-4.39839-.93969-6.92341-2.06472-1.17639-.52376-1.64877-.78766-2.85638-1.60545-1.49567-1.01124-1.80287-1.6609-.93267-1.96704.31828-.11483,1.16029-.15411,2.12014-.13395ZM60.16732,10.00947c1.60142,0,1.80991.01912,2.14027.21251,1.10893.65261-.02416,2.07677-2.76574,3.4697-1.15322.59027-2.34473,1.08981-4.13952,1.74346-2.03352.73928-3.35192,1.09682-5.9565,1.60447-1.19152.23667-2.24604.42503-2.34473.42503-.31828,0,2.67509-2.8755,4.29262-4.11942,1.93984-1.49062,3.73767-2.40313,5.96858-3.04068.9518-.27196,1.17237-.29507,2.80502-.29507ZM50.94856.88535c1.01927,0,1.50774.28702,1.95192,1.15724.58216,1.13714.57008,2.63987-.04331,4.78819-.54288,1.91165-2.12112,4.63002-3.78903,6.52249-.80272.91252-1.66791,2.00632-2.14027,2.70737-.27095.40081-.51165.74328-.53482.76646-.05941.0675-.1259-.19235-.25582-1.03036-.06648-.42909-.23166-1.29827-.36562-1.92776-1.18847-5.59092-.49554-9.5411,2.06171-11.77604.94777-.8299,1.92373-1.20759,3.11525-1.20759ZM50.96466,0c-.20044,0-.40892.01617-.62144.04733-1.3456.1894-2.32558.69299-3.40731,1.75053-1.86127,1.81796-2.67509,4.39132-2.53407,8.00309.06344,1.60846.20142,2.61264.62949,4.56357l.24875,1.12503-.48042-.44821c-2.28935-2.12417-5.03593-3.3328-9.29633-4.08819-1.84919-.3263-2.31351-.37364-3.80918-.38575-1.47855-.01107-2.31352.18129-2.77381.6416-.25582.25579-.29913.3777-.29913.86617,0,.61339.12992.84908.83093,1.51785,1.10893,1.06257,3.94213,2.53002,6.83377,3.54532,1.12101.3938,3.23005.84201,4.54442.9719l1.28619.1259-1.39293.28708c-2.17553.44814-4.47293,1.18847-6.70384,2.15939l-.4915.21251.57006,1.21165.57006,1.21669v9.01329c0,4.95337.0282,9.00929.05943,9.00929s.60633-.13801,1.27913-.30718c4.47694-1.12503,9.77979-1.64074,14.08449-1.36878,3.47379.21657,7.13692.83395,9.73748,1.63668.17323.05139.18129-.42503.18129-8.97806v-9.02946l.31425-.61738c.17323-.34241.42906-.88129.56703-1.20058l.25484-.5781-.69598-.31825c-1.07367-.48853-3.17063-1.22376-4.55954-1.60551-1.28717-.35046-3.79306-.8299-4.89894-.94067-1.40806-.13696-1.43526-.16924-.31425-.36964,1.35768-.23569,1.95899-.39681,3.9109-1.04247,3.4184-1.13309,6.27478-2.4978,7.78959-3.72556.99913-.80678,1.45539-2.16044.98804-2.90372-.72416-1.1452-3.78903-1.27109-6.99188-.29108-1.63668.49954-3.98141,1.75047-5.30285,2.82515-.24473.19641-.44516.3102-.44516.25585,0-.05945.04331-.13395.0987-.16924.13395-.08256,1.10893-1.58227,1.69108-2.60858,1.54299-2.71136,2.11307-5.81954,1.44832-7.90043-.42906-1.3456-1.49065-2.10099-2.89969-2.10904Z" fill="#285729"/><path d="M62.86287,78.828c-3.84799-7.58197-3.043-15.71796,1.80099-18.17896,4.84399-2.45703,11.89001,1.69098,15.73801,9.26898,3.85199,7.578,3.043,15.71899-1.80099,18.17596-4.84302,2.46106-11.89001-1.68695-15.73801-9.26599Z" fill="#367336"/></svg>